<svg width="109" height="31" viewBox="0 0 109 31" fill="none" xmlns="http://www.w3.org/2000/svg">
<path d="M10.8123 7.47517C10.8123 8.65495 10.5964 9.66928 10.1648 10.5181C9.73319 11.3634 9.14151 12.0145 8.38975 12.4713C7.6416 12.9245 6.79093 13.1511 5.83776 13.1511C4.88098 13.1511 4.02672 12.9245 3.27497 12.4713C2.52682 12.0145 1.93693 11.3616 1.5053 10.5127C1.07367 9.66388 0.857859 8.65136 0.857859 7.47517C0.857859 6.29539 1.07367 5.28287 1.5053 4.43759C1.93693 3.58873 2.52682 2.93769 3.27497 2.48448C4.02672 2.02768 4.88098 1.79927 5.83776 1.79927C6.79093 1.79927 7.6416 2.02768 8.38975 2.48448C9.14151 2.93769 9.73319 3.58873 10.1648 4.43759C10.5964 5.28287 10.8123 6.29539 10.8123 7.47517ZM9.16129 7.47517C9.16129 6.57595 9.01561 5.8188 8.72426 5.20373C8.43651 4.58507 8.04086 4.11747 7.53729 3.80095C7.03732 3.48082 6.47081 3.32076 5.83776 3.32076C5.20111 3.32076 4.6328 3.48082 4.13283 3.80095C3.63286 4.11747 3.2372 4.58507 2.94586 5.20373C2.6581 5.8188 2.51423 6.57595 2.51423 7.47517C2.51423 8.3744 2.6581 9.13334 2.94586 9.75201C3.2372 10.3671 3.63286 10.8347 4.13283 11.1548C4.6328 11.4713 5.20111 11.6296 5.83776 11.6296C6.47081 11.6296 7.03732 11.4713 7.53729 11.1548C8.04086 10.8347 8.43651 10.3671 8.72426 9.75201C9.01561 9.13334 9.16129 8.3744 9.16129 7.47517ZM13.6149 1.95034V13H12.0017V1.95034H13.6149ZM15.0255 13V4.71276H16.6387V13H15.0255ZM15.8402 3.43406C15.5596 3.43406 15.3186 3.34054 15.1172 3.1535C14.9194 2.96287 14.8205 2.73626 14.8205 2.47369C14.8205 2.20752 14.9194 1.98092 15.1172 1.79388C15.3186 1.60324 15.5596 1.50793 15.8402 1.50793C16.1207 1.50793 16.3599 1.60324 16.5578 1.79388C16.7592 1.98092 16.8599 2.20752 16.8599 2.47369C16.8599 2.73626 16.7592 2.96287 16.5578 3.1535C16.3599 3.34054 16.1207 3.43406 15.8402 3.43406ZM25.1388 4.71276L22.1336 13H20.4071L17.3965 4.71276H19.1284L21.2272 11.09H21.3135L23.4069 4.71276H25.1388ZM29.185 13.1673C28.3685 13.1673 27.6653 12.9928 27.0754 12.6439C26.4891 12.2914 26.0359 11.7968 25.7158 11.1602C25.3993 10.5199 25.241 9.76999 25.241 8.91033C25.241 8.06147 25.3993 7.31331 25.7158 6.66587C26.0359 6.01843 26.4819 5.51307 27.0539 5.14978C27.6294 4.78649 28.302 4.60485 29.0717 4.60485C29.5393 4.60485 29.9925 4.68218 30.4313 4.83685C30.8702 4.99152 31.264 5.23431 31.6129 5.56522C31.9618 5.89614 32.237 6.32596 32.4384 6.85471C32.6398 7.37985 32.7405 8.0183 32.7405 8.77005V9.34196H26.1528V8.1334H31.1597C31.1597 7.70897 31.0734 7.33309 30.9007 7.00578C30.7281 6.67486 30.4853 6.41409 30.1724 6.22345C29.863 6.03282 29.4997 5.9375 29.0825 5.9375C28.6293 5.9375 28.2336 6.049 27.8955 6.27201C27.561 6.49142 27.302 6.77917 27.1186 7.13527C26.9388 7.48776 26.8488 7.87083 26.8488 8.28447V9.22866C26.8488 9.78258 26.9459 10.2538 27.1402 10.6422C27.338 11.0307 27.6132 11.3274 27.9657 11.5325C28.3182 11.7339 28.73 11.8346 29.2012 11.8346C29.5069 11.8346 29.7857 11.7914 30.0375 11.7051C30.2893 11.6152 30.5069 11.4821 30.6903 11.3059C30.8738 11.1296 31.014 10.912 31.1111 10.653L32.638 10.9282C32.5157 11.3778 32.2963 11.7717 31.9798 12.1098C31.6669 12.4443 31.273 12.7051 30.7982 12.8921C30.327 13.0755 29.7893 13.1673 29.185 13.1673ZM33.7708 13V4.71276H35.33V6.02922H35.4164C35.5674 5.58321 35.8336 5.23251 36.2149 4.97713C36.5997 4.71815 37.035 4.58866 37.5205 4.58866C37.6213 4.58866 37.74 4.59226 37.8766 4.59946C38.0169 4.60665 38.1266 4.61564 38.2058 4.62643V6.1695C38.141 6.15152 38.0259 6.13173 37.8604 6.11015C37.695 6.08497 37.5295 6.07238 37.3641 6.07238C36.9828 6.07238 36.6429 6.15331 36.3444 6.31517C36.0494 6.47344 35.8156 6.69465 35.643 6.9788C35.4703 7.25936 35.384 7.57948 35.384 7.93917V13H33.7708ZM51.4103 5.54364H49.727C49.6622 5.18395 49.5417 4.86742 49.3655 4.59406C49.1892 4.3207 48.9734 4.0887 48.718 3.89806C48.4627 3.70743 48.1767 3.56355 47.8602 3.46643C47.5472 3.36932 47.2145 3.32076 46.862 3.32076C46.2254 3.32076 45.6553 3.48082 45.1517 3.80095C44.6517 4.12107 44.2561 4.59046 43.9647 5.20913C43.677 5.82779 43.5331 6.58314 43.5331 7.47517C43.5331 8.3744 43.677 9.13334 43.9647 9.75201C44.2561 10.3707 44.6535 10.8383 45.1571 11.1548C45.6607 11.4713 46.2272 11.6296 46.8566 11.6296C47.2055 11.6296 47.5365 11.5828 47.8494 11.4893C48.1659 11.3922 48.4519 11.2501 48.7072 11.0631C48.9626 10.876 49.1784 10.6476 49.3547 10.3779C49.5345 10.1045 49.6586 9.79157 49.727 9.43908L51.4103 9.44447C51.3204 9.9876 51.1459 10.4876 50.887 10.9444C50.6316 11.3976 50.3025 11.7896 49.8996 12.1206C49.5004 12.4479 49.0436 12.7015 48.5292 12.8813C48.0148 13.0611 47.4537 13.1511 46.8459 13.1511C45.8891 13.1511 45.0366 12.9245 44.2885 12.4713C43.5403 12.0145 42.9504 11.3616 42.5188 10.5127C42.0908 9.66388 41.8767 8.65136 41.8767 7.47517C41.8767 6.29539 42.0926 5.28287 42.5242 4.43759C42.9558 3.58873 43.5457 2.93769 44.2939 2.48448C45.042 2.02768 45.8927 1.79927 46.8459 1.79927C47.4321 1.79927 47.9789 1.8838 48.486 2.05286C48.9968 2.21831 49.4554 2.4629 49.8618 2.78662C50.2683 3.10674 50.6046 3.49881 50.8708 3.96281C51.1369 4.42321 51.3168 4.95015 51.4103 5.54364ZM52.5161 13V4.71276H54.0753V6.02922H54.1617C54.3127 5.58321 54.5789 5.23251 54.9602 4.97713C55.345 4.71815 55.7803 4.58866 56.2658 4.58866C56.3666 4.58866 56.4853 4.59226 56.6219 4.59946C56.7622 4.60665 56.8719 4.61564 56.9511 4.62643V6.1695C56.8863 6.15152 56.7712 6.13173 56.6057 6.11015C56.4403 6.08497 56.2748 6.07238 56.1094 6.07238C55.7281 6.07238 55.3882 6.15331 55.0897 6.31517C54.7947 6.47344 54.5609 6.69465 54.3883 6.9788C54.2156 7.25936 54.1293 7.57948 54.1293 7.93917V13H52.5161ZM60.7815 13.1673C60.0045 13.1673 59.3265 12.9892 58.7474 12.6331C58.1683 12.277 57.7187 11.7789 57.3986 11.1386C57.0785 10.4984 56.9184 9.75021 56.9184 8.89415C56.9184 8.03449 57.0785 7.28274 57.3986 6.63889C57.7187 5.99505 58.1683 5.49508 58.7474 5.13899C59.3265 4.7829 60.0045 4.60485 60.7815 4.60485C61.5584 4.60485 62.2364 4.7829 62.8155 5.13899C63.3946 5.49508 63.8442 5.99505 64.1643 6.63889C64.4845 7.28274 64.6445 8.03449 64.6445 8.89415C64.6445 9.75021 64.4845 10.4984 64.1643 11.1386C63.8442 11.7789 63.3946 12.277 62.8155 12.6331C62.2364 12.9892 61.5584 13.1673 60.7815 13.1673ZM60.7869 11.813C61.2904 11.813 61.7077 11.6799 62.0386 11.4138C62.3695 11.1476 62.6141 10.7933 62.7724 10.3509C62.9342 9.90847 63.0151 9.42109 63.0151 8.88875C63.0151 8.36001 62.9342 7.87443 62.7724 7.43201C62.6141 6.98599 62.3695 6.6281 62.0386 6.35834C61.7077 6.08857 61.2904 5.95369 60.7869 5.95369C60.2797 5.95369 59.8589 6.08857 59.5244 6.35834C59.1934 6.6281 58.9471 6.98599 58.7852 7.43201C58.6269 7.87443 58.5478 8.36001 58.5478 8.88875C58.5478 9.42109 58.6269 9.90847 58.7852 10.3509C58.9471 10.7933 59.1934 11.1476 59.5244 11.4138C59.8589 11.6799 60.2797 11.813 60.7869 11.813ZM71.8956 6.73601L70.4335 6.99499C70.3723 6.80795 70.2752 6.6299 70.1421 6.46085C70.0126 6.29179 69.8364 6.15331 69.6134 6.04541C69.3904 5.9375 69.1116 5.88355 68.7771 5.88355C68.3203 5.88355 67.939 5.98606 67.6333 6.19108C67.3275 6.39251 67.1747 6.65328 67.1747 6.97341C67.1747 7.25037 67.2772 7.47337 67.4822 7.64243C67.6872 7.81148 68.0182 7.94996 68.475 8.05787L69.7914 8.36001C70.554 8.53626 71.1223 8.80782 71.4963 9.1747C71.8704 9.54159 72.0575 10.0182 72.0575 10.6045C72.0575 11.1008 71.9136 11.5433 71.6258 11.9317C71.3417 12.3166 70.9442 12.6187 70.4335 12.8381C69.9263 13.0576 69.3382 13.1673 68.6692 13.1673C67.7412 13.1673 66.984 12.9694 66.3978 12.5738C65.8115 12.1745 65.4518 11.608 65.3187 10.8742L66.8779 10.6368C66.9751 11.0433 67.1747 11.3508 67.4768 11.5594C67.779 11.7645 68.1728 11.867 68.6584 11.867C69.1871 11.867 69.6098 11.7573 69.9263 11.5379C70.2428 11.3149 70.4011 11.0433 70.4011 10.7232C70.4011 10.4642 70.304 10.2466 70.1097 10.0703C69.9191 9.89408 69.626 9.761 69.2303 9.67108L67.8275 9.36354C67.0542 9.18729 66.4823 8.90674 66.1118 8.52187C65.7449 8.137 65.5615 7.64962 65.5615 7.05973C65.5615 6.57055 65.6982 6.14252 65.9715 5.77564C66.2449 5.40876 66.6226 5.1228 67.1045 4.91778C67.5865 4.70916 68.1386 4.60485 68.7609 4.60485C69.6565 4.60485 70.3615 4.79908 70.8759 5.18755C71.3902 5.57242 71.7301 6.08857 71.8956 6.73601ZM79.2816 6.73601L77.8194 6.99499C77.7583 6.80795 77.6612 6.6299 77.5281 6.46085C77.3986 6.29179 77.2223 6.15331 76.9993 6.04541C76.7763 5.9375 76.4976 5.88355 76.163 5.88355C75.7062 5.88355 75.325 5.98606 75.0192 6.19108C74.7135 6.39251 74.5606 6.65328 74.5606 6.97341C74.5606 7.25037 74.6631 7.47337 74.8682 7.64243C75.0732 7.81148 75.4041 7.94996 75.8609 8.05787L77.1774 8.36001C77.9399 8.53626 78.5082 8.80782 78.8823 9.1747C79.2564 9.54159 79.4434 10.0182 79.4434 10.6045C79.4434 11.1008 79.2995 11.5433 79.0118 11.9317C78.7276 12.3166 78.3302 12.6187 77.8194 12.8381C77.3123 13.0576 76.7242 13.1673 76.0551 13.1673C75.1271 13.1673 74.37 12.9694 73.7837 12.5738C73.1974 12.1745 72.8377 11.608 72.7046 10.8742L74.2639 10.6368C74.361 11.0433 74.5606 11.3508 74.8628 11.5594C75.1649 11.7645 75.5588 11.867 76.0443 11.867C76.5731 11.867 76.9957 11.7573 77.3123 11.5379C77.6288 11.3149 77.787 11.0433 77.787 10.7232C77.787 10.4642 77.6899 10.2466 77.4957 10.0703C77.3051 9.89408 77.0119 9.761 76.6163 9.67108L75.2135 9.36354C74.4401 9.18729 73.8682 8.90674 73.4977 8.52187C73.1309 8.137 72.9474 7.64962 72.9474 7.05973C72.9474 6.57055 73.0841 6.14252 73.3575 5.77564C73.6308 5.40876 74.0085 5.1228 74.4905 4.91778C74.9725 4.70916 75.5246 4.60485 76.1469 4.60485C77.0425 4.60485 77.7475 4.79908 78.2618 5.18755C78.7762 5.57242 79.1161 6.08857 79.2816 6.73601ZM82.0707 1.95034V13H80.4575V1.95034H82.0707ZM85.893 13.1834C85.3679 13.1834 84.8931 13.0863 84.4686 12.8921C84.0442 12.6943 83.7079 12.4083 83.4597 12.0342C83.2151 11.6602 83.0928 11.2016 83.0928 10.6584C83.0928 10.1908 83.1827 9.80596 83.3626 9.50382C83.5424 9.20168 83.7852 8.96249 84.091 8.78624C84.3967 8.60999 84.7384 8.47691 85.1161 8.38698C85.4937 8.29706 85.8786 8.22872 86.2707 8.18196C86.767 8.12441 87.1699 8.07765 87.4792 8.04168C87.7886 8.00212 88.0134 7.93917 88.1536 7.85285C88.2939 7.76652 88.3641 7.62624 88.3641 7.43201V7.39424C88.3641 6.92305 88.231 6.55796 87.9648 6.29899C87.7022 6.04001 87.3102 5.91052 86.7886 5.91052C86.2455 5.91052 85.8175 6.03102 85.5045 6.27201C85.1952 6.50941 84.9812 6.77378 84.8625 7.06513L83.3464 6.71982C83.5262 6.21626 83.7888 5.80981 84.1341 5.50048C84.483 5.18755 84.8841 4.96094 85.3373 4.82066C85.7905 4.67679 86.2671 4.60485 86.767 4.60485C87.098 4.60485 87.4487 4.64442 87.8191 4.72355C88.1932 4.79908 88.5421 4.93936 88.8658 5.14438C89.1932 5.34941 89.4611 5.64255 89.6697 6.02383C89.8784 6.4015 89.9827 6.89248 89.9827 7.49675V13H88.4072V11.867H88.3425C88.2382 12.0756 88.0817 12.2806 87.8731 12.482C87.6645 12.6835 87.3965 12.8507 87.0692 12.9838C86.7419 13.1169 86.3498 13.1834 85.893 13.1834ZM86.2437 11.8886C86.6897 11.8886 87.071 11.8004 87.3875 11.6242C87.7076 11.4479 87.9504 11.2177 88.1159 10.9336C88.2849 10.6458 88.3695 10.3383 88.3695 10.011V8.9427C88.3119 9.00025 88.2004 9.05421 88.035 9.10456C87.8731 9.15132 87.6879 9.19269 87.4792 9.22866C87.2706 9.26103 87.0674 9.2916 86.8696 9.32038C86.6717 9.34556 86.5063 9.36714 86.3732 9.38512C86.0603 9.42469 85.7743 9.49123 85.5153 9.58475C85.2599 9.67827 85.0549 9.81315 84.9003 9.9894C84.7492 10.1621 84.6737 10.3923 84.6737 10.68C84.6737 11.0793 84.8211 11.3814 85.1161 11.5864C85.411 11.7878 85.7869 11.8886 86.2437 11.8886ZM92.9849 8.07945V13H91.3717V4.71276H92.9202V6.06159H93.0227C93.2133 5.62277 93.5119 5.27028 93.9183 5.00411C94.3283 4.73794 94.8445 4.60485 95.4668 4.60485C96.0315 4.60485 96.5261 4.72355 96.9505 4.96094C97.3749 5.19474 97.704 5.54364 97.9378 6.00764C98.1716 6.47164 98.2885 7.04534 98.2885 7.72875V13H96.6753V7.92299C96.6753 7.3223 96.5189 6.85291 96.2059 6.5148C95.893 6.1731 95.4632 6.00224 94.9164 6.00224C94.5424 6.00224 94.2097 6.08317 93.9183 6.24503C93.6306 6.40689 93.4021 6.64429 93.2331 6.95722C93.0676 7.26655 92.9849 7.64063 92.9849 8.07945ZM102.795 13.1619C102.126 13.1619 101.529 12.991 101.003 12.6493C100.482 12.304 100.072 11.813 99.7733 11.1764C99.4784 10.5361 99.3309 9.76819 99.3309 8.87256C99.3309 7.97694 99.4802 7.2108 99.7787 6.57415C100.081 5.9375 100.495 5.45012 101.02 5.11201C101.545 4.77391 102.14 4.60485 102.806 4.60485C103.32 4.60485 103.734 4.69118 104.046 4.86383C104.363 5.03288 104.608 5.23071 104.78 5.45731C104.956 5.68392 105.093 5.88355 105.19 6.0562H105.287V1.95034H106.901V13H105.325V11.7105H105.19C105.093 11.8868 104.953 12.0882 104.769 12.3148C104.59 12.5414 104.341 12.7392 104.025 12.9083C103.708 13.0773 103.298 13.1619 102.795 13.1619ZM103.151 11.786C103.615 11.786 104.007 11.6638 104.327 11.4192C104.651 11.171 104.895 10.8275 105.061 10.3887C105.23 9.94983 105.314 9.43908 105.314 8.85638C105.314 8.28088 105.232 7.77731 105.066 7.34568C104.901 6.91406 104.658 6.57775 104.338 6.33676C104.018 6.09576 103.622 5.97527 103.151 5.97527C102.665 5.97527 102.261 6.10116 101.937 6.35294C101.613 6.60472 101.369 6.94823 101.203 7.38345C101.041 7.81867 100.96 8.30965 100.96 8.85638C100.96 9.4103 101.043 9.90847 101.208 10.3509C101.374 10.7933 101.619 11.144 101.942 11.403C102.27 11.6584 102.672 11.786 103.151 11.786Z" fill="white"/>
<path d="M2.00852 16.8182L4.84233 25.1108H4.95668L7.79048 16.8182H9.45099L5.78693 27H4.01207L0.348011 16.8182H2.00852ZM10.522 27V19.3636H12.0085V27H10.522ZM11.2727 18.1854C11.0142 18.1854 10.7921 18.0992 10.6065 17.9268C10.4242 17.7512 10.3331 17.5424 10.3331 17.3004C10.3331 17.0552 10.4242 16.8464 10.6065 16.674C10.7921 16.4983 11.0142 16.4105 11.2727 16.4105C11.5313 16.4105 11.7517 16.4983 11.934 16.674C12.1196 16.8464 12.2124 17.0552 12.2124 17.3004C12.2124 17.5424 12.1196 17.7512 11.934 17.9268C11.7517 18.0992 11.5313 18.1854 11.2727 18.1854ZM16.587 27.1491C15.9705 27.1491 15.4203 26.9917 14.9364 26.6768C14.4559 26.3587 14.078 25.9062 13.8029 25.3196C13.5311 24.7296 13.3953 24.022 13.3953 23.1967C13.3953 22.3714 13.5328 21.6655 13.8079 21.0788C14.0863 20.4922 14.4675 20.0431 14.9514 19.7315C15.4353 19.42 15.9838 19.2642 16.597 19.2642C17.0709 19.2642 17.4521 19.3438 17.7404 19.5028C18.0321 19.6586 18.2575 19.8409 18.4166 20.0497C18.579 20.2585 18.7049 20.4425 18.7944 20.6016H18.8839V16.8182H20.3704V27H18.9187V25.8118H18.7944C18.7049 25.9742 18.5757 26.1598 18.4066 26.3686C18.2409 26.5774 18.0122 26.7597 17.7205 26.9155C17.4289 27.0713 17.051 27.1491 16.587 27.1491ZM16.9151 25.8814C17.3427 25.8814 17.704 25.7687 17.9989 25.5433C18.2972 25.3146 18.5226 24.9981 18.6751 24.5938C18.8309 24.1894 18.9087 23.7187 18.9087 23.1818C18.9087 22.6515 18.8325 22.1875 18.6801 21.7898C18.5276 21.392 18.3039 21.0821 18.0089 20.8601C17.7139 20.638 17.3493 20.527 16.9151 20.527C16.4677 20.527 16.0948 20.643 15.7965 20.875C15.4982 21.107 15.2729 21.4235 15.1204 21.8246C14.9712 22.2256 14.8967 22.678 14.8967 23.1818C14.8967 23.6922 14.9729 24.1513 15.1254 24.5589C15.2778 24.9666 15.5032 25.2898 15.8015 25.5284C16.1031 25.7637 16.4743 25.8814 16.9151 25.8814ZM25.5032 27.1541C24.7508 27.1541 24.1029 26.9934 23.5593 26.6719C23.0191 26.3471 22.6015 25.8913 22.3065 25.3047C22.0148 24.7147 21.869 24.0237 21.869 23.2315C21.869 22.4493 22.0148 21.7599 22.3065 21.1634C22.6015 20.5668 23.0125 20.1011 23.5394 19.7663C24.0697 19.4316 24.6895 19.2642 25.3988 19.2642C25.8297 19.2642 26.2473 19.3355 26.6517 19.478C27.056 19.6205 27.4189 19.8442 27.7404 20.1491C28.0619 20.4541 28.3155 20.8501 28.5011 21.3374C28.6867 21.8213 28.7795 22.4096 28.7795 23.1023V23.6293H22.7092V22.5156H27.3228C27.3228 22.1245 27.2433 21.7782 27.0842 21.4766C26.9251 21.1716 26.7014 20.9313 26.413 20.7557C26.128 20.58 25.7932 20.4922 25.4088 20.4922C24.9911 20.4922 24.6266 20.5949 24.315 20.8004C24.0068 21.0026 23.7681 21.2678 23.5991 21.5959C23.4334 21.9207 23.3505 22.2737 23.3505 22.6548V23.5249C23.3505 24.0353 23.44 24.4695 23.619 24.8274C23.8013 25.1854 24.0548 25.4588 24.3796 25.6477C24.7044 25.8333 25.0839 25.9261 25.5181 25.9261C25.7999 25.9261 26.0567 25.8864 26.2887 25.8068C26.5207 25.724 26.7213 25.6013 26.8903 25.4389C27.0593 25.2765 27.1886 25.076 27.2781 24.8374L28.685 25.0909C28.5723 25.5052 28.3702 25.8681 28.0785 26.1797C27.7901 26.4879 27.4272 26.7282 26.9897 26.9006C26.5555 27.0696 26.06 27.1541 25.5032 27.1541ZM33.3654 27.1541C32.6495 27.1541 32.0248 26.9901 31.4911 26.6619C30.9575 26.3338 30.5432 25.8748 30.2483 25.2848C29.9533 24.6948 29.8058 24.0054 29.8058 23.2166C29.8058 22.4245 29.9533 21.7318 30.2483 21.1385C30.5432 20.5452 30.9575 20.0845 31.4911 19.7564C32.0248 19.4283 32.6495 19.2642 33.3654 19.2642C34.0813 19.2642 34.7061 19.4283 35.2397 19.7564C35.7733 20.0845 36.1876 20.5452 36.4826 21.1385C36.7776 21.7318 36.9251 22.4245 36.9251 23.2166C36.9251 24.0054 36.7776 24.6948 36.4826 25.2848C36.1876 25.8748 35.7733 26.3338 35.2397 26.6619C34.7061 26.9901 34.0813 27.1541 33.3654 27.1541ZM33.3704 25.9062C33.8344 25.9062 34.2189 25.7836 34.5238 25.5384C34.8287 25.2931 35.0541 24.9666 35.2 24.5589C35.3491 24.1513 35.4237 23.7022 35.4237 23.2116C35.4237 22.7244 35.3491 22.277 35.2 21.8693C35.0541 21.4583 34.8287 21.1286 34.5238 20.88C34.2189 20.6314 33.8344 20.5071 33.3704 20.5071C32.9031 20.5071 32.5153 20.6314 32.2071 20.88C31.9021 21.1286 31.6751 21.4583 31.526 21.8693C31.3801 22.277 31.3072 22.7244 31.3072 23.2116C31.3072 23.7022 31.3801 24.1513 31.526 24.5589C31.6751 24.9666 31.9021 25.2931 32.2071 25.5384C32.5153 25.7836 32.9031 25.9062 33.3704 25.9062ZM41.5061 30.0227C40.8995 30.0227 40.3775 29.9432 39.94 29.7841C39.5058 29.625 39.1512 29.4145 38.8761 29.1527C38.601 28.8909 38.3955 28.6042 38.2596 28.2926L39.5373 27.7656C39.6268 27.9115 39.7461 28.0656 39.8953 28.228C40.0477 28.3937 40.2532 28.5346 40.5118 28.6506C40.7736 28.7666 41.11 28.8246 41.521 28.8246C42.0844 28.8246 42.5501 28.687 42.918 28.4119C43.2859 28.1402 43.4698 27.706 43.4698 27.1094V25.608H43.3754C43.2859 25.7704 43.1566 25.951 42.9876 26.1499C42.8219 26.3487 42.5932 26.5211 42.3015 26.6669C42.0099 26.8127 41.6304 26.8857 41.163 26.8857C40.5598 26.8857 40.0163 26.7448 39.5323 26.4631C39.0518 26.178 38.6706 25.7588 38.3889 25.2053C38.1105 24.6484 37.9713 23.964 37.9713 23.152C37.9713 22.34 38.1088 21.6439 38.3839 21.0639C38.6623 20.4839 39.0435 20.0398 39.5274 19.7315C40.0113 19.42 40.5598 19.2642 41.173 19.2642C41.6469 19.2642 42.0297 19.3438 42.3214 19.5028C42.6131 19.6586 42.8401 19.8409 43.0025 20.0497C43.1682 20.2585 43.2958 20.4425 43.3853 20.6016H43.4947V19.3636H44.9514V27.169C44.9514 27.8253 44.7989 28.3639 44.494 28.7848C44.1891 29.2057 43.7764 29.5173 43.2561 29.7195C42.739 29.9216 42.1557 30.0227 41.5061 30.0227ZM41.4912 25.6527C41.9187 25.6527 42.28 25.5533 42.575 25.3544C42.8733 25.1522 43.0986 24.8639 43.2511 24.4893C43.4069 24.1115 43.4848 23.6591 43.4848 23.1321C43.4848 22.6184 43.4085 22.166 43.2561 21.7749C43.1036 21.3838 42.8799 21.0788 42.5849 20.8601C42.2899 20.638 41.9253 20.527 41.4912 20.527C41.0437 20.527 40.6708 20.643 40.3725 20.875C40.0743 21.1037 39.8489 21.4152 39.6964 21.8097C39.5473 22.2041 39.4727 22.6449 39.4727 23.1321C39.4727 23.6326 39.5489 24.0717 39.7014 24.4496C39.8538 24.8274 40.0792 25.1224 40.3775 25.3345C40.6791 25.5466 41.0503 25.6527 41.4912 25.6527ZM46.665 27V19.3636H48.1018V20.5767H48.1813C48.3205 20.1657 48.5658 19.8426 48.9171 19.6072C49.2718 19.3686 49.6728 19.2493 50.1202 19.2493C50.2131 19.2493 50.3224 19.2526 50.4484 19.2592C50.5776 19.2659 50.6787 19.2741 50.7516 19.2841V20.706C50.692 20.6894 50.5859 20.6712 50.4335 20.6513C50.281 20.6281 50.1285 20.6165 49.9761 20.6165C49.6247 20.6165 49.3115 20.6911 49.0364 20.8402C48.7647 20.986 48.5492 21.1899 48.3901 21.4517C48.231 21.7102 48.1515 22.0052 48.1515 22.3366V27H46.665ZM53.912 27.169C53.4281 27.169 52.9906 27.0795 52.5995 26.9006C52.2084 26.7183 51.8985 26.4548 51.6698 26.1101C51.4444 25.7654 51.3317 25.3428 51.3317 24.8423C51.3317 24.4115 51.4146 24.0568 51.5803 23.7784C51.746 23.5 51.9697 23.2796 52.2515 23.1172C52.5332 22.9548 52.8481 22.8321 53.1961 22.7493C53.5441 22.6664 53.8987 22.6035 54.26 22.5604C54.7174 22.5073 55.0886 22.4643 55.3736 22.4311C55.6587 22.3946 55.8658 22.3366 55.9951 22.2571C56.1243 22.1776 56.189 22.0483 56.189 21.8693V21.8345C56.189 21.4003 56.0663 21.0639 55.8211 20.8253C55.5791 20.5866 55.2179 20.4673 54.7373 20.4673C54.2368 20.4673 53.8424 20.5784 53.554 20.8004C53.269 21.0192 53.0718 21.2628 52.9624 21.5312L51.5654 21.2131C51.7311 20.7491 51.9731 20.3745 52.2912 20.0895C52.6127 19.8011 52.9823 19.5923 53.3999 19.4631C53.8175 19.3305 54.2567 19.2642 54.7174 19.2642C55.0223 19.2642 55.3455 19.3007 55.6868 19.3736C56.0315 19.4432 56.353 19.5724 56.6513 19.7614C56.9529 19.9503 57.1999 20.2204 57.3921 20.5717C57.5843 20.9197 57.6804 21.3722 57.6804 21.929V27H56.2287V25.956H56.1691C56.073 26.1482 55.9288 26.3371 55.7366 26.5227C55.5443 26.7083 55.2974 26.8625 54.9958 26.9851C54.6942 27.1077 54.3329 27.169 53.912 27.169ZM54.2351 25.9759C54.6461 25.9759 54.9974 25.8946 55.2891 25.7322C55.5841 25.5698 55.8078 25.3577 55.9603 25.0959C56.1161 24.8307 56.1939 24.5473 56.1939 24.2457V23.2614C56.1409 23.3144 56.0382 23.3641 55.8857 23.4105C55.7366 23.4536 55.5659 23.4917 55.3736 23.5249C55.1814 23.5547 54.9941 23.5829 54.8118 23.6094C54.6295 23.6326 54.4771 23.6525 54.3545 23.669C54.0661 23.7055 53.8026 23.7668 53.564 23.853C53.3286 23.9392 53.1397 24.0634 52.9972 24.2259C52.858 24.3849 52.7884 24.5971 52.7884 24.8622C52.7884 25.2301 52.9243 25.5085 53.1961 25.6974C53.4679 25.883 53.8142 25.9759 54.2351 25.9759ZM59.3804 29.8636V19.3636H60.8321V20.6016H60.9564C61.0426 20.4425 61.1668 20.2585 61.3292 20.0497C61.4917 19.8409 61.717 19.6586 62.0054 19.5028C62.2937 19.3438 62.6749 19.2642 63.1488 19.2642C63.7653 19.2642 64.3155 19.42 64.7994 19.7315C65.2833 20.0431 65.6628 20.4922 65.9379 21.0788C66.2163 21.6655 66.3555 22.3714 66.3555 23.1967C66.3555 24.022 66.218 24.7296 65.9429 25.3196C65.6678 25.9062 65.2899 26.3587 64.8094 26.6768C64.3288 26.9917 63.7802 27.1491 63.1638 27.1491C62.6997 27.1491 62.3202 27.0713 62.0253 26.9155C61.7336 26.7597 61.5049 26.5774 61.3392 26.3686C61.1735 26.1598 61.0459 25.9742 60.9564 25.8118H60.8669V29.8636H59.3804ZM60.8371 23.1818C60.8371 23.7187 60.9149 24.1894 61.0707 24.5938C61.2265 24.9981 61.4519 25.3146 61.7469 25.5433C62.0418 25.7687 62.4031 25.8814 62.8307 25.8814C63.2748 25.8814 63.646 25.7637 63.9443 25.5284C64.2426 25.2898 64.468 24.9666 64.6204 24.5589C64.7762 24.1513 64.8541 23.6922 64.8541 23.1818C64.8541 22.678 64.7779 22.2256 64.6254 21.8246C64.4763 21.4235 64.2509 21.107 63.9493 20.875C63.651 20.643 63.2781 20.527 62.8307 20.527C62.3998 20.527 62.0352 20.638 61.7369 20.8601C61.4419 21.0821 61.2182 21.392 61.0658 21.7898C60.9133 22.1875 60.8371 22.6515 60.8371 23.1818ZM69.2275 22.4659V27H67.741V16.8182H69.2076V20.6065H69.3021C69.4811 20.1955 69.7545 19.8691 70.1224 19.6271C70.4903 19.3852 70.9709 19.2642 71.5642 19.2642C72.0878 19.2642 72.5452 19.3719 72.9363 19.5874C73.3307 19.8028 73.6357 20.1243 73.8511 20.5518C74.0698 20.9761 74.1792 21.5064 74.1792 22.1428V27H72.6927V22.3217C72.6927 21.7616 72.5485 21.3274 72.2602 21.0192C71.9718 20.7076 71.5708 20.5518 71.0571 20.5518C70.7057 20.5518 70.3909 20.6264 70.1125 20.7756C69.8374 20.9247 69.6203 21.1435 69.4612 21.4318C69.3054 21.7169 69.2275 22.0616 69.2275 22.4659ZM76.5491 29.8636C76.327 29.8636 76.1248 29.8454 75.9425 29.8089C75.7602 29.7758 75.6244 29.7393 75.5349 29.6996L75.8928 28.4815C76.1646 28.5545 76.4066 28.5859 76.6187 28.576C76.8308 28.5661 77.0181 28.4865 77.1805 28.3374C77.3462 28.1882 77.492 27.9446 77.618 27.6065L77.8019 27.0994L75.0079 19.3636H76.5988L78.5327 25.2898H78.6123L80.5462 19.3636H82.1421L78.9951 28.0192C78.8493 28.4169 78.6637 28.7533 78.4383 29.0284C78.2129 29.3068 77.9444 29.5156 77.6329 29.6548C77.3213 29.794 76.9601 29.8636 76.5491 29.8636Z" fill="#9FB9C6"/>
</svg>
