<svg width="16" height="16" viewBox="0 0 16 16" fill="none" xmlns="http://www.w3.org/2000/svg">
    <g opacity="0.6">
        <path
            d="M7.99967 14.6663C11.6816 14.6663 14.6663 11.6816 14.6663 7.99967C14.6663 4.31777 11.6816 1.33301 7.99967 1.33301C4.31777 1.33301 1.33301 4.31777 1.33301 7.99967C1.33301 11.6816 4.31777 14.6663 7.99967 14.6663Z"
            stroke="white" stroke-width="0.666667" stroke-linecap="round" stroke-linejoin="round" />
        <path d="M1.33301 8H14.6663" stroke="white" stroke-width="0.666667" stroke-linecap="round"
            stroke-linejoin="round" />
        <path
            d="M7.99967 14.6663C9.47244 14.6663 10.6663 11.6816 10.6663 7.99967C10.6663 4.31777 9.47244 1.33301 7.99967 1.33301C6.52691 1.33301 5.33301 4.31777 5.33301 7.99967C5.33301 11.6816 6.52691 14.6663 7.99967 14.6663Z"
            stroke="white" stroke-width="0.666667" stroke-linecap="round" stroke-linejoin="round" />
        <path
            d="M3.28613 3.37988C4.49256 4.58632 6.15923 5.33252 8.00016 5.33252C9.84113 5.33252 11.5078 4.58632 12.7142 3.37988"
            stroke="white" stroke-width="0.666667" stroke-linecap="round" stroke-linejoin="round" />
        <path
            d="M12.7142 12.6186C11.5078 11.4122 9.84113 10.666 8.00016 10.666C6.15923 10.666 4.49256 11.4122 3.28613 12.6186"
            stroke="white" stroke-width="0.666667" stroke-linecap="round" stroke-linejoin="round" />
    </g>
</svg>