<svg width="138" height="27" viewBox="0 0 138 27" fill="none" xmlns="http://www.w3.org/2000/svg">
    <path
        d="M10.9633 7.47517C10.9633 8.66574 10.7403 9.68546 10.2943 10.5343C9.85189 11.3796 9.24761 12.027 8.48147 12.4767C7.71893 12.9263 6.85388 13.1511 5.88632 13.1511C4.91875 13.1511 4.0519 12.9263 3.28576 12.4767C2.52322 12.0234 1.91894 11.3742 1.47293 10.5289C1.03051 9.68007 0.809301 8.66215 0.809301 7.47517C0.809301 6.2846 1.03051 5.26668 1.47293 4.42141C1.91894 3.57254 2.52322 2.9233 3.28576 2.47369C4.0519 2.02408 4.91875 1.79927 5.88632 1.79927C6.85388 1.79927 7.71893 2.02408 8.48147 2.47369C9.24761 2.9233 9.85189 3.57254 10.2943 4.42141C10.7403 5.26668 10.9633 6.2846 10.9633 7.47517ZM8.95087 7.47517C8.95087 6.6371 8.81958 5.93031 8.55701 5.3548C8.29803 4.7757 7.93834 4.33868 7.47794 4.04374C7.01754 3.74519 6.487 3.59592 5.88632 3.59592C5.28563 3.59592 4.75509 3.74519 4.29469 4.04374C3.83429 4.33868 3.4728 4.7757 3.21023 5.3548C2.95125 5.93031 2.82176 6.6371 2.82176 7.47517C2.82176 8.31325 2.95125 9.02184 3.21023 9.60094C3.4728 10.1764 3.83429 10.6135 4.29469 10.912C4.75509 11.2069 5.28563 11.3544 5.88632 11.3544C6.487 11.3544 7.01754 11.2069 7.47794 10.912C7.93834 10.6135 8.29803 10.1764 8.55701 9.60094C8.81958 9.02184 8.95087 8.31325 8.95087 7.47517ZM11.7922 13V1.95034H13.7939V11.322H18.6605V13H11.7922ZM21.3359 1.95034V13H19.3343V1.95034H21.3359ZM23.9183 1.95034L26.794 10.6476H26.9073L29.7776 1.95034H31.9789L28.0835 13H25.6124L21.7224 1.95034H23.9183ZM32.3708 13V1.95034H39.5574V3.62829H34.3725V6.6281H39.1851V8.30605H34.3725V11.322H39.6006V13H32.3708ZM40.536 13V1.95034H44.6796C45.5285 1.95034 46.2407 2.09782 46.8162 2.39276C47.3953 2.68771 47.8323 3.10135 48.1272 3.63369C48.4258 4.16243 48.5751 4.7793 48.5751 5.48429C48.5751 6.19288 48.424 6.80795 48.1218 7.3295C47.8233 7.84745 47.3827 8.2485 46.8 8.53266C46.2173 8.81322 45.5015 8.95349 44.6526 8.95349H41.7014V7.29173H44.3829C44.8792 7.29173 45.2857 7.22339 45.6022 7.08671C45.9188 6.94643 46.1525 6.7432 46.3036 6.47703C46.4583 6.20727 46.5356 5.87635 46.5356 5.48429C46.5356 5.09223 46.4583 4.75772 46.3036 4.48076C46.149 4.2002 45.9134 3.98798 45.5968 3.84411C45.2803 3.69664 44.8721 3.6229 44.3721 3.6229H42.5377V13H40.536ZM46.2443 7.99312L48.9797 13H46.746L44.0592 7.99312H46.2443ZM61.5172 5.67852H59.4993C59.4418 5.34761 59.3357 5.05446 59.181 4.79908C59.0263 4.54011 58.8339 4.3207 58.6037 4.14085C58.3735 3.96101 58.1109 3.82612 57.816 3.7362C57.5246 3.64268 57.2099 3.59592 56.8718 3.59592C56.2711 3.59592 55.7388 3.74699 55.2748 4.04913C54.8108 4.34767 54.4475 4.78649 54.1849 5.36559C53.9223 5.9411 53.7911 6.64429 53.7911 7.47517C53.7911 8.32044 53.9223 9.03263 54.1849 9.61173C54.4511 10.1872 54.8144 10.6225 55.2748 10.9174C55.7388 11.2087 56.2693 11.3544 56.8664 11.3544C57.1973 11.3544 57.5066 11.3113 57.7944 11.2249C58.0857 11.135 58.3465 11.0037 58.5767 10.8311C58.8105 10.6584 59.0065 10.4462 59.1648 10.1944C59.3267 9.94264 59.4382 9.65489 59.4993 9.33117L61.5172 9.34196C61.4416 9.86711 61.278 10.3599 61.0262 10.8203C60.778 11.2807 60.4525 11.6871 60.0496 12.0396C59.6468 12.3885 59.1756 12.6619 58.6361 12.8597C58.0965 13.054 57.4977 13.1511 56.8394 13.1511C55.8683 13.1511 55.0014 12.9263 54.2389 12.4767C53.4763 12.027 52.8756 11.3778 52.4368 10.5289C51.998 9.68007 51.7786 8.66215 51.7786 7.47517C51.7786 6.2846 51.9998 5.26668 52.4422 4.42141C52.8846 3.57254 53.4871 2.9233 54.2497 2.47369C55.0122 2.02408 55.8755 1.79927 56.8394 1.79927C57.4545 1.79927 58.0264 1.8856 58.5551 2.05825C59.0839 2.2309 59.5551 2.48448 59.9687 2.81899C60.3824 3.14991 60.7223 3.55636 60.9884 4.03834C61.2582 4.51673 61.4345 5.06345 61.5172 5.67852ZM62.2867 13V1.95034H66.4303C67.2792 1.95034 67.9914 2.09782 68.5669 2.39276C69.146 2.68771 69.583 3.10135 69.878 3.63369C70.1765 4.16243 70.3258 4.7793 70.3258 5.48429C70.3258 6.19288 70.1747 6.80795 69.8726 7.3295C69.574 7.84745 69.1334 8.2485 68.5507 8.53266C67.968 8.81322 67.2522 8.95349 66.4034 8.95349H63.4521V7.29173H66.1336C66.63 7.29173 67.0364 7.22339 67.3529 7.08671C67.6695 6.94643 67.9033 6.7432 68.0543 6.47703C68.209 6.20727 68.2863 5.87635 68.2863 5.48429C68.2863 5.09223 68.209 4.75772 68.0543 4.48076C67.8997 4.2002 67.6641 3.98798 67.3475 3.84411C67.031 3.69664 66.6228 3.6229 66.1228 3.6229H64.2884V13H62.2867ZM67.995 7.99312L70.7304 13H68.4968L65.8099 7.99312H67.995ZM80.9782 7.47517C80.9782 8.66574 80.7552 9.68546 80.3092 10.5343C79.8668 11.3796 79.2625 12.027 78.4964 12.4767C77.7338 12.9263 76.8688 13.1511 75.9012 13.1511C74.9336 13.1511 74.0668 12.9263 73.3007 12.4767C72.5381 12.0234 71.9338 11.3742 71.4878 10.5289C71.0454 9.68007 70.8242 8.66215 70.8242 7.47517C70.8242 6.2846 71.0454 5.26668 71.4878 4.42141C71.9338 3.57254 72.5381 2.9233 73.3007 2.47369C74.0668 2.02408 74.9336 1.79927 75.9012 1.79927C76.8688 1.79927 77.7338 2.02408 78.4964 2.47369C79.2625 2.9233 79.8668 3.57254 80.3092 4.42141C80.7552 5.26668 80.9782 6.2846 80.9782 7.47517ZM78.9658 7.47517C78.9658 6.6371 78.8345 5.93031 78.5719 5.3548C78.3129 4.7757 77.9532 4.33868 77.4928 4.04374C77.0324 3.74519 76.5019 3.59592 75.9012 3.59592C75.3005 3.59592 74.77 3.74519 74.3096 4.04374C73.8492 4.33868 73.4877 4.7757 73.2251 5.3548C72.9661 5.93031 72.8367 6.6371 72.8367 7.47517C72.8367 8.31325 72.9661 9.02184 73.2251 9.60094C73.4877 10.1764 73.8492 10.6135 74.3096 10.912C74.77 11.2069 75.3005 11.3544 75.9012 11.3544C76.5019 11.3544 77.0324 11.2069 77.4928 10.912C77.9532 10.6135 78.3129 10.1764 78.5719 9.60094C78.8345 9.02184 78.9658 8.31325 78.9658 7.47517ZM87.8121 4.98792C87.7618 4.51673 87.5496 4.14984 87.1755 3.88727C86.805 3.6247 86.323 3.49341 85.7295 3.49341C85.3123 3.49341 84.9544 3.55636 84.6559 3.68225C84.3573 3.80814 84.1289 3.97899 83.9706 4.1948C83.8124 4.41062 83.7315 4.65701 83.7279 4.93397C83.7279 5.16417 83.78 5.3638 83.8843 5.53285C83.9922 5.7019 84.1379 5.84578 84.3213 5.96448C84.5048 6.07958 84.708 6.17669 84.931 6.25582C85.154 6.33496 85.3788 6.4015 85.6054 6.45545L86.6413 6.71443C87.0586 6.81154 87.4596 6.94283 87.8445 7.10829C88.233 7.27375 88.5801 7.48237 88.8858 7.73415C89.1951 7.98593 89.4397 8.28987 89.6196 8.64596C89.7994 9.00205 89.8893 9.41929 89.8893 9.89768C89.8893 10.5451 89.7239 11.1152 89.393 11.608C89.062 12.0972 88.5837 12.4802 87.9578 12.7572C87.3355 13.0306 86.582 13.1673 85.6972 13.1673C84.8375 13.1673 84.0911 13.0342 83.4581 12.768C82.8286 12.5018 82.3359 12.1134 81.9798 11.6026C81.6273 11.0918 81.4366 10.4696 81.4079 9.73582H83.3772C83.4059 10.1207 83.5246 10.4408 83.7332 10.6962C83.9419 10.9516 84.2134 11.1422 84.5479 11.2681C84.8861 11.394 85.2637 11.4569 85.681 11.4569C86.1162 11.4569 86.4975 11.3922 86.8248 11.2627C87.1557 11.1296 87.4147 10.9462 87.6017 10.7124C87.7887 10.475 87.8841 10.198 87.8877 9.88149C87.8841 9.59374 87.7995 9.35635 87.6341 9.16931C87.4686 8.97867 87.2366 8.82041 86.9381 8.69452C86.6431 8.56503 86.2978 8.44993 85.9022 8.34922L84.6451 8.0255C83.735 7.7917 83.0157 7.4374 82.4869 6.96261C81.9618 6.48423 81.6992 5.84938 81.6992 5.05806C81.6992 4.40702 81.8755 3.83691 82.2279 3.34774C82.584 2.85856 83.0678 2.47909 83.6793 2.20932C84.2908 1.93596 84.9832 1.79927 85.7565 1.79927C86.5406 1.79927 87.2276 1.93596 87.8175 2.20932C88.411 2.47909 88.8768 2.85496 89.2149 3.33695C89.553 3.81533 89.7275 4.36566 89.7383 4.98792H87.8121ZM96.6153 4.98792C96.565 4.51673 96.3528 4.14984 95.9787 3.88727C95.6082 3.6247 95.1262 3.49341 94.5327 3.49341C94.1155 3.49341 93.7576 3.55636 93.4591 3.68225C93.1605 3.80814 92.9321 3.97899 92.7738 4.1948C92.6156 4.41062 92.5347 4.65701 92.5311 4.93397C92.5311 5.16417 92.5832 5.3638 92.6875 5.53285C92.7954 5.7019 92.9411 5.84578 93.1245 5.96448C93.308 6.07958 93.5112 6.17669 93.7342 6.25582C93.9572 6.33496 94.182 6.4015 94.4086 6.45545L95.4445 6.71443C95.8618 6.81154 96.2628 6.94283 96.6477 7.10829C97.0362 7.27375 97.3833 7.48237 97.689 7.73415C97.9983 7.98593 98.2429 8.28987 98.4228 8.64596C98.6026 9.00205 98.6925 9.41929 98.6925 9.89768C98.6925 10.5451 98.5271 11.1152 98.1962 11.608C97.8652 12.0972 97.3869 12.4802 96.761 12.7572C96.1387 13.0306 95.3852 13.1673 94.5004 13.1673C93.6407 13.1673 92.8943 13.0342 92.2613 12.768C91.6318 12.5018 91.1391 12.1134 90.783 11.6026C90.4305 11.0918 90.2398 10.4696 90.2111 9.73582H92.1804C92.2091 10.1207 92.3278 10.4408 92.5364 10.6962C92.7451 10.9516 93.0166 11.1422 93.3511 11.2681C93.6893 11.394 94.0669 11.4569 94.4842 11.4569C94.9194 11.4569 95.3007 11.3922 95.628 11.2627C95.9589 11.1296 96.2179 10.9462 96.4049 10.7124C96.5919 10.475 96.6873 10.198 96.6909 9.88149C96.6873 9.59374 96.6027 9.35635 96.4373 9.16931C96.2718 8.97867 96.0398 8.82041 95.7413 8.69452C95.4463 8.56503 95.101 8.44993 94.7054 8.34922L93.4483 8.0255C92.5382 7.7917 91.8189 7.4374 91.2901 6.96261C90.765 6.48423 90.5024 5.84938 90.5024 5.05806C90.5024 4.40702 90.6787 3.83691 91.0311 3.34774C91.3872 2.85856 91.871 2.47909 92.4825 2.20932C93.094 1.93596 93.7864 1.79927 94.5597 1.79927C95.3438 1.79927 96.0308 1.93596 96.6207 2.20932C97.2142 2.47909 97.68 2.85496 98.0181 3.33695C98.3562 3.81533 98.5307 4.36566 98.5415 4.98792H96.6153ZM99.4135 13V1.95034H101.415V11.322H106.282V13H99.4135ZM108.79 13H106.653L110.543 1.95034H113.015L116.91 13H114.773L111.822 4.21639H111.736L108.79 13ZM108.86 8.66754H114.687V10.2754H108.86V8.66754ZM126.382 1.95034V13H124.602L119.395 5.4735H119.303V13H117.302V1.95034H119.093L124.294 9.48224H124.391V1.95034H126.382ZM131.244 13H127.5V1.95034H131.32C132.417 1.95034 133.359 2.17155 134.147 2.61397C134.938 3.05279 135.546 3.68405 135.97 4.50773C136.395 5.33142 136.607 6.31697 136.607 7.46438C136.607 8.61539 136.393 9.60453 135.965 10.4318C135.541 11.2591 134.927 11.894 134.125 12.3364C133.327 12.7788 132.366 13 131.244 13ZM129.501 11.2681H131.147C131.917 11.2681 132.559 11.1278 133.073 10.8473C133.587 10.5631 133.974 10.1405 134.233 9.57935C134.492 9.01464 134.622 8.30965 134.622 7.46438C134.622 6.61911 134.492 5.91772 134.233 5.3602C133.974 4.79908 133.591 4.38005 133.084 4.10308C132.58 3.82253 131.954 3.68225 131.206 3.68225H129.501V11.2681Z"
        fill="white" />
    <path
        d="M1.17188 17.2727L3.89915 24.9645H3.97585L6.70312 17.2727H7.53835L4.36364 26H3.51136L0.336648 17.2727H1.17188ZM9.83097 17.2727V26H9.03409V17.2727H9.83097ZM14.7081 26H12.1513V17.2727H14.8615C15.6939 17.2727 16.4055 17.446 16.9964 17.7926C17.5902 18.1392 18.0447 18.6364 18.3601 19.2841C18.6754 19.9318 18.8331 20.7088 18.8331 21.6151C18.8331 22.5298 18.6712 23.3153 18.3473 23.9716C18.0263 24.625 17.5575 25.1264 16.9411 25.4759C16.3274 25.8253 15.5831 26 14.7081 26ZM12.9482 25.2841H14.6612C15.4112 25.2841 16.0391 25.1364 16.5447 24.8409C17.0504 24.5455 17.4297 24.1236 17.6825 23.5753C17.9354 23.027 18.0618 22.3736 18.0618 21.6151C18.0589 20.8622 17.9339 20.2145 17.6868 19.6719C17.4425 19.1293 17.0788 18.7131 16.5959 18.4233C16.1158 18.1335 15.522 17.9886 14.8146 17.9886H12.9482V25.2841ZM20.7646 26V17.2727H25.8271V17.9886H21.5614V21.2741H25.5586V21.9901H21.5614V25.2841H25.9123V26H20.7646ZM35.0444 21.6364C35.0444 22.5455 34.8825 23.3366 34.5586 24.0099C34.2347 24.6804 33.7887 25.2003 33.2205 25.5696C32.6552 25.9361 32.0046 26.1193 31.2688 26.1193C30.533 26.1193 29.881 25.9361 29.3129 25.5696C28.7475 25.2003 28.3029 24.6804 27.979 24.0099C27.658 23.3366 27.4975 22.5455 27.4975 21.6364C27.4975 20.7273 27.658 19.9375 27.979 19.267C28.3029 18.5937 28.7489 18.0739 29.3171 17.7074C29.8853 17.3381 30.5359 17.1534 31.2688 17.1534C32.0046 17.1534 32.6552 17.3381 33.2205 17.7074C33.7887 18.0739 34.2347 18.5937 34.5586 19.267C34.8825 19.9375 35.0444 20.7273 35.0444 21.6364ZM34.2688 21.6364C34.2688 20.8551 34.1381 20.1861 33.8768 19.6293C33.6154 19.0696 33.2589 18.642 32.8072 18.3466C32.3555 18.0511 31.8427 17.9034 31.2688 17.9034C30.6978 17.9034 30.1864 18.0511 29.7347 18.3466C29.283 18.642 28.9251 19.0682 28.6609 19.625C28.3995 20.1818 28.2688 20.8523 28.2688 21.6364C28.2688 22.4176 28.3995 23.0866 28.6609 23.6435C28.9222 24.2003 29.2788 24.6278 29.7305 24.9261C30.1822 25.2216 30.695 25.3693 31.2688 25.3693C31.8427 25.3693 32.3555 25.2216 32.8072 24.9261C33.2617 24.6307 33.6197 24.2045 33.881 23.6477C34.1424 23.0881 34.2717 22.4176 34.2688 21.6364ZM43.0099 20C42.9304 19.7102 42.8139 19.4389 42.6605 19.1861C42.5071 18.9304 42.3168 18.7074 42.0895 18.517C41.8651 18.3239 41.6051 18.1733 41.3097 18.0653C41.017 17.9574 40.6903 17.9034 40.3295 17.9034C39.7614 17.9034 39.2528 18.0511 38.804 18.3466C38.3551 18.642 38 19.0682 37.7386 19.625C37.4801 20.1818 37.3509 20.8523 37.3509 21.6364C37.3509 22.4176 37.4815 23.0866 37.7429 23.6435C38.0043 24.2003 38.3622 24.6278 38.8168 24.9261C39.2741 25.2216 39.7969 25.3693 40.3849 25.3693C40.9219 25.3693 41.3963 25.25 41.8082 25.0114C42.2202 24.7727 42.5412 24.4318 42.7713 23.9886C43.0043 23.5455 43.1179 23.0185 43.1122 22.4077L43.3679 22.4886H40.5724V21.7727H43.8878V22.4886C43.8878 23.233 43.7372 23.8764 43.4361 24.419C43.1349 24.9616 42.7216 25.3807 42.196 25.6761C41.6705 25.9716 41.0668 26.1193 40.3849 26.1193C39.6236 26.1193 38.9574 25.9361 38.3864 25.5696C37.8153 25.2003 37.3707 24.6804 37.0526 24.0099C36.7372 23.3366 36.5795 22.5455 36.5795 21.6364C36.5795 20.9517 36.6705 20.3338 36.8523 19.7827C37.0341 19.2315 37.2912 18.7599 37.6236 18.3679C37.9588 17.9759 38.3551 17.6761 38.8125 17.4688C39.2699 17.2585 39.7756 17.1534 40.3295 17.1534C40.8068 17.1534 41.2429 17.2287 41.6378 17.3793C42.0355 17.5298 42.3849 17.7372 42.6861 18.0014C42.9901 18.2628 43.2386 18.5653 43.4318 18.9091C43.6278 19.25 43.7599 19.6136 43.8281 20H43.0099ZM45.8661 26V17.2727H48.6829C49.3022 17.2727 49.8192 17.3849 50.234 17.6094C50.6516 17.831 50.9656 18.1392 51.1758 18.5341C51.3888 18.9261 51.4954 19.3764 51.4954 19.8849C51.4954 20.3935 51.3888 20.8423 51.1758 21.2315C50.9656 21.6207 50.6531 21.9247 50.2383 22.1435C49.8235 22.3622 49.3093 22.4716 48.6957 22.4716H46.2965V21.7429H48.6744C49.1289 21.7429 49.5067 21.6676 49.8079 21.517C50.1119 21.3665 50.3377 21.152 50.4854 20.8736C50.636 20.5952 50.7113 20.2656 50.7113 19.8849C50.7113 19.5043 50.636 19.1719 50.4854 18.8878C50.3349 18.6009 50.1076 18.3793 49.8036 18.223C49.5025 18.0668 49.1218 17.9886 48.6616 17.9886H46.663V26H45.8661ZM49.7141 22.0625L51.8619 26H50.9414L48.815 22.0625H49.7141ZM53.4492 26H52.614L55.7887 17.2727H56.641L59.8157 26H58.9805L56.2447 18.3082H56.185L53.4492 26ZM54.0501 22.6548H58.3796V23.3707H54.0501V22.6548ZM61.3114 26V17.2727H64.1282C64.7475 17.2727 65.2646 17.392 65.6793 17.6307C66.0969 17.8665 66.4109 18.1875 66.6211 18.5938C66.8342 19 66.9407 19.4574 66.9407 19.9659C66.9407 20.4744 66.8356 20.9332 66.6254 21.3423C66.4151 21.7486 66.1026 22.071 65.6879 22.3097C65.2731 22.5455 64.7575 22.6634 64.141 22.6634H61.9251V21.9474H64.1197C64.5771 21.9474 64.9563 21.8622 65.2575 21.6918C65.5586 21.5185 65.783 21.2827 65.9308 20.9844C66.0813 20.6861 66.1566 20.3466 66.1566 19.9659C66.1566 19.5852 66.0813 19.2457 65.9308 18.9474C65.783 18.6491 65.5572 18.4148 65.2532 18.2443C64.9521 18.0739 64.57 17.9886 64.1069 17.9886H62.1083V26H61.3114ZM68.8114 26V17.2727H69.6083V21.2741H74.56V17.2727H75.3569V26H74.56V21.9901H69.6083V26H68.8114ZM76.8526 17.2727H77.7731L80.3597 21.4148H80.4364L83.0231 17.2727H83.9435L80.7944 22.2202V26H80.0018V22.2202L76.8526 17.2727Z"
        fill="white" />
</svg>