<svg width="258" height="53" viewBox="0 0 258 53" fill="none" xmlns="http://www.w3.org/2000/svg">
<path d="M23.0909 12.3636C23.0909 14.8712 22.6212 17.0189 21.6818 18.8068C20.75 20.5871 19.4773 21.9508 17.8636 22.8977C16.2576 23.8447 14.4356 24.3182 12.3977 24.3182C10.3598 24.3182 8.53409 23.8447 6.92045 22.8977C5.31439 21.9432 4.04167 20.5758 3.10227 18.7955C2.17045 17.0076 1.70455 14.8636 1.70455 12.3636C1.70455 9.85606 2.17045 7.71212 3.10227 5.93182C4.04167 4.14394 5.31439 2.77651 6.92045 1.82954C8.53409 0.882575 10.3598 0.40909 12.3977 0.40909C14.4356 0.40909 16.2576 0.882575 17.8636 1.82954C19.4773 2.77651 20.75 4.14394 21.6818 5.93182C22.6212 7.71212 23.0909 9.85606 23.0909 12.3636ZM18.8523 12.3636C18.8523 10.5985 18.5758 9.10985 18.0227 7.89773C17.4773 6.67803 16.7197 5.75758 15.75 5.13636C14.7803 4.50758 13.6629 4.19318 12.3977 4.19318C11.1326 4.19318 10.0152 4.50758 9.04545 5.13636C8.07576 5.75758 7.31439 6.67803 6.76136 7.89773C6.21591 9.10985 5.94318 10.5985 5.94318 12.3636C5.94318 14.1288 6.21591 15.6212 6.76136 16.8409C7.31439 18.053 8.07576 18.9735 9.04545 19.6023C10.0152 20.2235 11.1326 20.5341 12.3977 20.5341C13.6629 20.5341 14.7803 20.2235 15.75 19.6023C16.7197 18.9735 17.4773 18.053 18.0227 16.8409C18.5758 15.6212 18.8523 14.1288 18.8523 12.3636ZM27.0767 24V0.727272H31.2926V20.4659H41.5426V24H27.0767ZM49.4176 0.727272V24H45.2017V0.727272H49.4176ZM81.8409 8.57955H77.5909C77.4697 7.88258 77.2462 7.26515 76.9205 6.72727C76.5947 6.18182 76.1894 5.7197 75.7045 5.34091C75.2197 4.96212 74.6667 4.67803 74.0455 4.48864C73.4318 4.29167 72.7689 4.19318 72.0568 4.19318C70.7917 4.19318 69.6705 4.51136 68.6932 5.14773C67.7159 5.77651 66.9508 6.70076 66.3977 7.92045C65.8447 9.13258 65.5682 10.6136 65.5682 12.3636C65.5682 14.1439 65.8447 15.6439 66.3977 16.8636C66.9583 18.0758 67.7235 18.9924 68.6932 19.6136C69.6705 20.2273 70.7879 20.5341 72.0455 20.5341C72.7424 20.5341 73.3939 20.4432 74 20.2614C74.6136 20.072 75.1629 19.7955 75.6477 19.4318C76.1402 19.0682 76.553 18.6212 76.8864 18.0909C77.2273 17.5606 77.4621 16.9545 77.5909 16.2727L81.8409 16.2955C81.6818 17.4015 81.3371 18.4394 80.8068 19.4091C80.2841 20.3788 79.5985 21.2348 78.75 21.9773C77.9015 22.7121 76.9091 23.2879 75.7727 23.7045C74.6364 24.1136 73.375 24.3182 71.9886 24.3182C69.9432 24.3182 68.1174 23.8447 66.5114 22.8977C64.9053 21.9508 63.6402 20.5833 62.7159 18.7955C61.7917 17.0076 61.3295 14.8636 61.3295 12.3636C61.3295 9.85606 61.7955 7.71212 62.7273 5.93182C63.6591 4.14394 64.928 2.77651 66.5341 1.82954C68.1402 0.882575 69.9583 0.40909 71.9886 0.40909C73.2841 0.40909 74.4886 0.590908 75.6023 0.954544C76.7159 1.31818 77.7083 1.85227 78.5795 2.55682C79.4508 3.25379 80.1667 4.10985 80.7273 5.125C81.2955 6.13258 81.6667 7.28409 81.8409 8.57955ZM85.7017 24V0.727272H94.429C96.2169 0.727272 97.7169 1.03788 98.929 1.65909C100.149 2.2803 101.069 3.15151 101.69 4.27273C102.319 5.38636 102.634 6.68561 102.634 8.17045C102.634 9.66288 102.315 10.9583 101.679 12.0568C101.05 13.1477 100.122 13.9924 98.8949 14.5909C97.6676 15.1818 96.16 15.4773 94.3722 15.4773H88.1562V11.9773H93.804C94.8494 11.9773 95.7055 11.8333 96.3722 11.5455C97.0388 11.25 97.5313 10.822 97.8494 10.2614C98.1752 9.69318 98.3381 8.99621 98.3381 8.17045C98.3381 7.3447 98.1752 6.64015 97.8494 6.05682C97.5237 5.46591 97.0275 5.01894 96.3608 4.71591C95.6941 4.4053 94.8343 4.25 93.7812 4.25H89.9176V24H85.7017ZM97.7244 13.4545L103.486 24H98.7812L93.1222 13.4545H97.7244ZM127.31 12.3636C127.31 14.8712 126.84 17.0189 125.901 18.8068C124.969 20.5871 123.696 21.9508 122.082 22.8977C120.476 23.8447 118.654 24.3182 116.616 24.3182C114.579 24.3182 112.753 23.8447 111.139 22.8977C109.533 21.9432 108.26 20.5758 107.321 18.7955C106.389 17.0076 105.923 14.8636 105.923 12.3636C105.923 9.85606 106.389 7.71212 107.321 5.93182C108.26 4.14394 109.533 2.77651 111.139 1.82954C112.753 0.882575 114.579 0.40909 116.616 0.40909C118.654 0.40909 120.476 0.882575 122.082 1.82954C123.696 2.77651 124.969 4.14394 125.901 5.93182C126.84 7.71212 127.31 9.85606 127.31 12.3636ZM123.071 12.3636C123.071 10.5985 122.795 9.10985 122.241 7.89773C121.696 6.67803 120.938 5.75758 119.969 5.13636C118.999 4.50758 117.882 4.19318 116.616 4.19318C115.351 4.19318 114.234 4.50758 113.264 5.13636C112.295 5.75758 111.533 6.67803 110.98 7.89773C110.435 9.10985 110.162 10.5985 110.162 12.3636C110.162 14.1288 110.435 15.6212 110.98 16.8409C111.533 18.053 112.295 18.9735 113.264 19.6023C114.234 20.2235 115.351 20.5341 116.616 20.5341C117.882 20.5341 118.999 20.2235 119.969 19.6023C120.938 18.9735 121.696 18.053 122.241 16.8409C122.795 15.6212 123.071 14.1288 123.071 12.3636ZM143.943 7.125C143.837 6.13258 143.39 5.35985 142.602 4.80682C141.822 4.25379 140.807 3.97727 139.557 3.97727C138.678 3.97727 137.924 4.10985 137.295 4.375C136.667 4.64015 136.186 5 135.852 5.45454C135.519 5.90909 135.348 6.42803 135.341 7.01136C135.341 7.49621 135.451 7.91667 135.67 8.27273C135.898 8.62879 136.205 8.93182 136.591 9.18182C136.977 9.42424 137.405 9.62879 137.875 9.79545C138.345 9.96212 138.818 10.1023 139.295 10.2159L141.477 10.7614C142.356 10.9659 143.201 11.2424 144.011 11.5909C144.83 11.9394 145.561 12.3788 146.205 12.9091C146.856 13.4394 147.371 14.0795 147.75 14.8295C148.129 15.5795 148.318 16.4583 148.318 17.4659C148.318 18.8295 147.97 20.0303 147.273 21.0682C146.576 22.0985 145.568 22.9053 144.25 23.4886C142.939 24.0644 141.352 24.3523 139.489 24.3523C137.678 24.3523 136.106 24.072 134.773 23.5114C133.447 22.9508 132.409 22.1326 131.659 21.0568C130.917 19.9811 130.515 18.6705 130.455 17.125H134.602C134.663 17.9356 134.913 18.6098 135.352 19.1477C135.792 19.6856 136.364 20.0871 137.068 20.3523C137.78 20.6174 138.576 20.75 139.455 20.75C140.371 20.75 141.174 20.6136 141.864 20.3409C142.561 20.0606 143.106 19.6742 143.5 19.1818C143.894 18.6818 144.095 18.0985 144.102 17.4318C144.095 16.8258 143.917 16.3258 143.568 15.9318C143.22 15.5303 142.731 15.197 142.102 14.9318C141.481 14.6591 140.754 14.4167 139.92 14.2045L137.273 13.5227C135.356 13.0303 133.841 12.2841 132.727 11.2841C131.621 10.2765 131.068 8.93939 131.068 7.27273C131.068 5.90151 131.439 4.70076 132.182 3.67045C132.932 2.64015 133.951 1.84091 135.239 1.27273C136.527 0.696969 137.985 0.40909 139.614 0.40909C141.265 0.40909 142.712 0.696969 143.955 1.27273C145.205 1.84091 146.186 2.63258 146.898 3.64773C147.61 4.6553 147.977 5.81439 148 7.125H143.943ZM164.724 7.125C164.618 6.13258 164.171 5.35985 163.384 4.80682C162.603 4.25379 161.588 3.97727 160.338 3.97727C159.459 3.97727 158.705 4.10985 158.077 4.375C157.448 4.64015 156.967 5 156.634 5.45454C156.3 5.90909 156.13 6.42803 156.122 7.01136C156.122 7.49621 156.232 7.91667 156.452 8.27273C156.679 8.62879 156.986 8.93182 157.372 9.18182C157.759 9.42424 158.187 9.62879 158.656 9.79545C159.126 9.96212 159.599 10.1023 160.077 10.2159L162.259 10.7614C163.137 10.9659 163.982 11.2424 164.793 11.5909C165.611 11.9394 166.342 12.3788 166.986 12.9091C167.637 13.4394 168.152 14.0795 168.531 14.8295C168.91 15.5795 169.099 16.4583 169.099 17.4659C169.099 18.8295 168.751 20.0303 168.054 21.0682C167.357 22.0985 166.349 22.9053 165.031 23.4886C163.721 24.0644 162.134 24.3523 160.27 24.3523C158.459 24.3523 156.887 24.072 155.554 23.5114C154.228 22.9508 153.19 22.1326 152.44 21.0568C151.698 19.9811 151.296 18.6705 151.236 17.125H155.384C155.444 17.9356 155.694 18.6098 156.134 19.1477C156.573 19.6856 157.145 20.0871 157.849 20.3523C158.562 20.6174 159.357 20.75 160.236 20.75C161.152 20.75 161.955 20.6136 162.645 20.3409C163.342 20.0606 163.887 19.6742 164.281 19.1818C164.675 18.6818 164.876 18.0985 164.884 17.4318C164.876 16.8258 164.698 16.3258 164.349 15.9318C164.001 15.5303 163.512 15.197 162.884 14.9318C162.262 14.6591 161.535 14.4167 160.702 14.2045L158.054 13.5227C156.137 13.0303 154.622 12.2841 153.509 11.2841C152.402 10.2765 151.849 8.93939 151.849 7.27273C151.849 5.90151 152.221 4.70076 152.963 3.67045C153.713 2.64015 154.732 1.84091 156.02 1.27273C157.308 0.696969 158.766 0.40909 160.395 0.40909C162.046 0.40909 163.493 0.696969 164.736 1.27273C165.986 1.84091 166.967 2.63258 167.679 3.64773C168.391 4.6553 168.759 5.81439 168.781 7.125H164.724ZM172.858 24V0.727272H177.074V20.4659H187.324V24H172.858ZM194.847 24H190.347L198.54 0.727272H203.744L211.949 24H207.449L201.233 5.5H201.051L194.847 24ZM194.994 14.875H207.267V18.2614H194.994V14.875ZM234.139 0.727272V24H230.389L219.423 8.14773H219.23V24H215.014V0.727272H218.787L229.741 16.5909H229.946V0.727272H234.139ZM246.619 24H238.733V0.727272H246.778C249.089 0.727272 251.074 1.19318 252.733 2.125C254.4 3.04924 255.68 4.37879 256.574 6.11364C257.468 7.84848 257.915 9.92424 257.915 12.3409C257.915 14.7652 257.464 16.8485 256.562 18.5909C255.669 20.3333 254.377 21.6705 252.688 22.6023C251.006 23.5341 248.983 24 246.619 24ZM242.949 20.3523H246.415C248.036 20.3523 249.388 20.0568 250.472 19.4659C251.555 18.8674 252.369 17.9773 252.915 16.7955C253.46 15.6061 253.733 14.1212 253.733 12.3409C253.733 10.5606 253.46 9.08333 252.915 7.90909C252.369 6.72727 251.563 5.8447 250.494 5.26136C249.434 4.67045 248.116 4.375 246.54 4.375H242.949V20.3523ZM3.125 28.7273L10.3977 49.2386H10.6023L17.875 28.7273H20.1023L11.6364 52H9.36364L0.897727 28.7273H3.125ZM26.2159 28.7273V52H24.0909V28.7273H26.2159ZM39.2216 52H32.4034V28.7273H39.6307C41.8504 28.7273 43.7481 29.1894 45.3239 30.1136C46.9072 31.0379 48.1193 32.3636 48.9602 34.0909C49.8011 35.8182 50.2216 37.8902 50.2216 40.3068C50.2216 42.7462 49.7898 44.8409 48.9261 46.5909C48.0701 48.3333 46.8201 49.6705 45.1761 50.6023C43.5398 51.5341 41.5549 52 39.2216 52ZM34.5284 50.0909H39.0966C41.0966 50.0909 42.7708 49.697 44.1193 48.9091C45.4678 48.1212 46.4792 46.9962 47.1534 45.5341C47.8277 44.072 48.1648 42.3295 48.1648 40.3068C48.1572 38.2992 47.8239 36.572 47.1648 35.125C46.5133 33.678 45.5436 32.5682 44.2557 31.7955C42.9754 31.0227 41.392 30.6364 39.5057 30.6364H34.5284V50.0909ZM55.3722 52V28.7273H68.8722V30.6364H57.4972V39.3977H68.1562V41.3068H57.4972V50.0909H69.0994V52H55.3722ZM93.4517 40.3636C93.4517 42.7879 93.0199 44.8977 92.1562 46.6932C91.2926 48.4811 90.1032 49.8674 88.5881 50.8523C87.0805 51.8295 85.3456 52.3182 83.3835 52.3182C81.4214 52.3182 79.6828 51.8295 78.1676 50.8523C76.66 49.8674 75.4744 48.4811 74.6108 46.6932C73.7547 44.8977 73.3267 42.7879 73.3267 40.3636C73.3267 37.9394 73.7547 35.8333 74.6108 34.0455C75.4744 32.25 76.6638 30.8636 78.179 29.8864C79.6941 28.9015 81.429 28.4091 83.3835 28.4091C85.3456 28.4091 87.0805 28.9015 88.5881 29.8864C90.1032 30.8636 91.2926 32.25 92.1562 34.0455C93.0199 35.8333 93.4517 37.9394 93.4517 40.3636ZM91.3835 40.3636C91.3835 38.2803 91.035 36.4962 90.3381 35.0114C89.6411 33.5189 88.6903 32.3788 87.4858 31.5909C86.2813 30.803 84.9138 30.4091 83.3835 30.4091C81.8608 30.4091 80.4972 30.803 79.2926 31.5909C78.0881 32.3788 77.1335 33.5152 76.429 35C75.732 36.4848 75.3835 38.2727 75.3835 40.3636C75.3835 42.447 75.732 44.2311 76.429 45.7159C77.1259 47.2008 78.0767 48.3409 79.2812 49.1364C80.4858 49.9242 81.8532 50.3182 83.3835 50.3182C84.9138 50.3182 86.2813 49.9242 87.4858 49.1364C88.6979 48.3485 89.6525 47.2121 90.3494 45.7273C91.0464 44.2348 91.3911 42.447 91.3835 40.3636ZM114.693 36C114.481 35.2273 114.17 34.5038 113.761 33.8295C113.352 33.1477 112.845 32.553 112.239 32.0455C111.64 31.5303 110.947 31.1288 110.159 30.8409C109.379 30.553 108.508 30.4091 107.545 30.4091C106.03 30.4091 104.674 30.803 103.477 31.5909C102.28 32.3788 101.333 33.5152 100.636 35C99.947 36.4848 99.6023 38.2727 99.6023 40.3636C99.6023 42.447 99.9508 44.2311 100.648 45.7159C101.345 47.2008 102.299 48.3409 103.511 49.1364C104.731 49.9242 106.125 50.3182 107.693 50.3182C109.125 50.3182 110.39 50 111.489 49.3636C112.587 48.7273 113.443 47.8182 114.057 46.6364C114.678 45.4545 114.981 44.0492 114.966 42.4205L115.648 42.6364H108.193V40.7273H117.034V42.6364C117.034 44.6212 116.633 46.3371 115.83 47.7841C115.027 49.2311 113.924 50.3485 112.523 51.1364C111.121 51.9242 109.511 52.3182 107.693 52.3182C105.663 52.3182 103.886 51.8295 102.364 50.8523C100.841 49.8674 99.6553 48.4811 98.8068 46.6932C97.9659 44.8977 97.5455 42.7879 97.5455 40.3636C97.5455 38.5379 97.7879 36.8902 98.2727 35.4205C98.7576 33.9508 99.4432 32.6932 100.33 31.6477C101.223 30.6023 102.28 29.803 103.5 29.25C104.72 28.6894 106.068 28.4091 107.545 28.4091C108.818 28.4091 109.981 28.6098 111.034 29.0114C112.095 29.4129 113.027 29.9659 113.83 30.6705C114.64 31.3674 115.303 32.1742 115.818 33.0909C116.341 34 116.693 34.9697 116.875 36H114.693ZM122.31 52V28.7273H129.821C131.473 28.7273 132.851 29.0265 133.957 29.625C135.071 30.2159 135.908 31.0379 136.469 32.0909C137.037 33.1364 137.321 34.3371 137.321 35.6932C137.321 37.0492 137.037 38.2462 136.469 39.2841C135.908 40.322 135.075 41.1326 133.969 41.7159C132.863 42.2992 131.491 42.5909 129.855 42.5909H123.457V40.6477H129.798C131.01 40.6477 132.018 40.447 132.821 40.0455C133.632 39.6439 134.234 39.072 134.628 38.3295C135.029 37.5871 135.23 36.7083 135.23 35.6932C135.23 34.678 135.029 33.7917 134.628 33.0341C134.226 32.2689 133.62 31.678 132.81 31.2614C132.007 30.8447 130.991 30.6364 129.764 30.6364H124.435V52H122.31ZM132.571 41.5L138.298 52H135.844L130.173 41.5H132.571ZM142.531 52H140.304L148.77 28.7273H151.043L159.509 52H157.281L149.986 31.4886H149.827L142.531 52ZM144.134 43.0795H155.679V44.9886H144.134V43.0795ZM163.497 52V28.7273H171.009C172.66 28.7273 174.039 29.0455 175.145 29.6818C176.259 30.3106 177.096 31.1667 177.656 32.25C178.224 33.3333 178.509 34.553 178.509 35.9091C178.509 37.2652 178.228 38.4886 177.668 39.5795C177.107 40.6629 176.274 41.5227 175.168 42.1591C174.062 42.7879 172.687 43.1023 171.043 43.1023H165.134V41.1932H170.986C172.205 41.1932 173.217 40.9659 174.02 40.5114C174.823 40.0492 175.421 39.4205 175.815 38.625C176.217 37.8295 176.418 36.9242 176.418 35.9091C176.418 34.8939 176.217 33.9886 175.815 33.1932C175.421 32.3977 174.819 31.7727 174.009 31.3182C173.205 30.8636 172.187 30.6364 170.952 30.6364H165.622V52H163.497ZM183.497 52V28.7273H185.622V39.3977H198.827V28.7273H200.952V52H198.827V41.3068H185.622V52H183.497ZM204.94 28.7273H207.395L214.293 39.7727H214.497L221.395 28.7273H223.849L215.452 41.9205V52H213.338V41.9205L204.94 28.7273Z" fill="white"/>
</svg>
